<?xml version="1.0" standalone="no"?>
<!DOCTYPE svg PUBLIC "-//W3C//DTD SVG 20010904//EN"
 "http://www.w3.org/TR/2001/REC-SVG-20010904/DTD/svg10.dtd">
<svg version="1.0" xmlns="http://www.w3.org/2000/svg"
 width="512.000000pt" height="512.000000pt" viewBox="0 0 512.000000 512.000000"
 preserveAspectRatio="xMidYMid meet">
<metadata>
Created by potrace 1.11, written by Peter Selinger 2001-2013
</metadata>
<g transform="translate(0.000000,512.000000) scale(0.100000,-0.100000)"
fill="#000000" stroke="none">
<path d="M0 2560 l0 -2560 2560 0 2560 0 0 2560 0 2560 -2560 0 -2560 0 0
-2560z m3985 1289 c170 -63 262 -219 273 -459 8 -190 -36 -460 -112 -693 -14
-43 -26 -81 -26 -86 0 -14 60 -22 238 -30 96 -5 179 -14 194 -21 15 -7 34 -28
43 -47 34 -72 -20 -195 -102 -229 -45 -19 -265 -18 -399 2 -58 8 -107 14 -109
12 -1 -2 -25 -48 -53 -103 -194 -391 -488 -726 -752 -860 -97 -49 -190 -68
-303 -63 -121 5 -200 41 -277 125 -122 134 -216 433 -236 749 -4 60 -10 116
-15 124 -7 12 -8 12 -9 1 0 -26 -111 -294 -166 -401 -85 -168 -168 -285 -278
-396 -88 -88 -114 -107 -200 -150 l-99 -49 -121 0 c-110 0 -126 2 -177 26
-341 160 -486 875 -384 1892 23 233 55 435 76 492 24 64 82 121 136 132 64 13
160 7 194 -14 84 -49 93 -109 55 -393 -53 -399 -60 -496 -60 -865 -1 -363 5
-438 45 -598 54 -215 144 -307 252 -259 48 22 135 110 194 198 204 301 406
900 528 1569 36 196 52 248 91 294 45 52 108 76 200 75 166 -2 198 -74 155
-347 -66 -411 -85 -943 -50 -1342 28 -316 113 -456 278 -458 81 0 147 37 252
142 99 99 223 280 323 472 36 69 66 130 66 135 0 5 -27 29 -61 54 -142 104
-243 269 -284 465 -23 112 -21 321 4 443 49 234 201 415 392 466 83 23 217 20
284 -5z"/>
<path d="M3691 3495 c-73 -66 -108 -197 -98 -370 6 -110 30 -199 74 -268 27
-44 92 -117 104 -117 17 0 88 253 109 391 17 105 9 283 -14 330 -38 76 -113
90 -175 34z"/>
</g>
</svg>
